<mxfile host="app.diagrams.net" modified="2024-01-11T21:25:44.293Z" agent="Mozilla/5.0 (Windows NT 10.0; Win64; x64) AppleWebKit/537.36 (KHTML, like Gecko) Chrome/120.0.0.0 Safari/537.36" etag="UyRV-ijtty8hUZgUCBbh" version="22.1.18" type="device">
  <diagram name="Page-1" id="Ex_LOpiX1bTE0HjQlcWH">
    <mxGraphModel dx="2010" dy="1742" grid="1" gridSize="10" guides="1" tooltips="1" connect="1" arrows="1" fold="1" page="1" pageScale="1" pageWidth="850" pageHeight="1100" background="none" math="0" shadow="1">
      <root>
        <mxCell id="0" />
        <mxCell id="1" parent="0" />
        <mxCell id="QeVsfK4hTUTbqEL9YIG4-1" value="User" style="whiteSpace=wrap;html=1;align=center;labelBackgroundColor=none;" parent="1" vertex="1">
          <mxGeometry x="60" y="30" width="100" height="40" as="geometry" />
        </mxCell>
        <mxCell id="QeVsfK4hTUTbqEL9YIG4-4" value="&lt;font color=&quot;#121212&quot;&gt;d&lt;/font&gt;" style="ellipse;whiteSpace=wrap;html=1;aspect=fixed;labelBackgroundColor=none;fillColor=#d80073;fontColor=#ffffff;strokeColor=#A50040;" parent="1" vertex="1">
          <mxGeometry x="100" y="120" width="20" height="20" as="geometry" />
        </mxCell>
        <mxCell id="QeVsfK4hTUTbqEL9YIG4-6" value="" style="endArrow=none;html=1;rounded=0;exitX=0.5;exitY=1;exitDx=0;exitDy=0;entryX=0.5;entryY=0;entryDx=0;entryDy=0;labelBackgroundColor=none;fontColor=default;" parent="1" source="QeVsfK4hTUTbqEL9YIG4-1" target="QeVsfK4hTUTbqEL9YIG4-4" edge="1">
          <mxGeometry relative="1" as="geometry">
            <mxPoint x="110" y="100" as="sourcePoint" />
            <mxPoint x="270" y="100" as="targetPoint" />
          </mxGeometry>
        </mxCell>
        <mxCell id="QeVsfK4hTUTbqEL9YIG4-10" value="" style="endArrow=none;html=1;rounded=0;entryX=0;entryY=0.5;entryDx=0;entryDy=0;labelBackgroundColor=none;fontColor=default;" parent="1" target="QeVsfK4hTUTbqEL9YIG4-17" edge="1">
          <mxGeometry relative="1" as="geometry">
            <mxPoint x="120" y="130" as="sourcePoint" />
            <mxPoint x="180" y="190.5" as="targetPoint" />
            <Array as="points">
              <mxPoint x="200" y="200" />
            </Array>
          </mxGeometry>
        </mxCell>
        <mxCell id="QeVsfK4hTUTbqEL9YIG4-11" value="" style="endArrow=none;html=1;rounded=0;entryX=0.5;entryY=0;entryDx=0;entryDy=0;labelBackgroundColor=none;fontColor=default;" parent="1" target="QeVsfK4hTUTbqEL9YIG4-16" edge="1">
          <mxGeometry relative="1" as="geometry">
            <mxPoint x="110" y="140" as="sourcePoint" />
            <mxPoint x="110" y="230" as="targetPoint" />
          </mxGeometry>
        </mxCell>
        <mxCell id="QeVsfK4hTUTbqEL9YIG4-13" value="" style="endArrow=none;html=1;rounded=0;exitX=1;exitY=0.5;exitDx=0;exitDy=0;labelBackgroundColor=none;fontColor=default;" parent="1" source="QeVsfK4hTUTbqEL9YIG4-15" edge="1">
          <mxGeometry relative="1" as="geometry">
            <mxPoint x="20" y="180" as="sourcePoint" />
            <mxPoint x="100" y="129.5" as="targetPoint" />
            <Array as="points">
              <mxPoint y="210" />
            </Array>
          </mxGeometry>
        </mxCell>
        <mxCell id="QeVsfK4hTUTbqEL9YIG4-15" value="Admin" style="whiteSpace=wrap;html=1;align=center;labelBackgroundColor=none;" parent="1" vertex="1">
          <mxGeometry x="-220" y="190" width="100" height="40" as="geometry" />
        </mxCell>
        <mxCell id="QeVsfK4hTUTbqEL9YIG4-16" value="Instructor" style="whiteSpace=wrap;html=1;align=center;labelBackgroundColor=none;" parent="1" vertex="1">
          <mxGeometry x="60" y="250" width="100" height="40" as="geometry" />
        </mxCell>
        <mxCell id="QeVsfK4hTUTbqEL9YIG4-17" value="Student" style="whiteSpace=wrap;html=1;align=center;labelBackgroundColor=none;" parent="1" vertex="1">
          <mxGeometry x="350" y="180" width="100" height="40" as="geometry" />
        </mxCell>
        <mxCell id="QeVsfK4hTUTbqEL9YIG4-91" style="edgeStyle=orthogonalEdgeStyle;rounded=0;orthogonalLoop=1;jettySize=auto;html=1;labelBackgroundColor=none;fontColor=default;" parent="1" edge="1">
          <mxGeometry relative="1" as="geometry">
            <mxPoint x="130" y="660" as="targetPoint" />
            <mxPoint x="130" y="660" as="sourcePoint" />
          </mxGeometry>
        </mxCell>
        <mxCell id="QeVsfK4hTUTbqEL9YIG4-21" value="Course" style="whiteSpace=wrap;html=1;align=center;labelBackgroundColor=none;" parent="1" vertex="1">
          <mxGeometry x="25" y="597.5" width="170" height="50" as="geometry" />
        </mxCell>
        <mxCell id="QeVsfK4hTUTbqEL9YIG4-24" value="enrolls" style="shape=rhombus;perimeter=rhombusPerimeter;whiteSpace=wrap;html=1;align=center;labelBackgroundColor=none;" parent="1" vertex="1">
          <mxGeometry x="345" y="400" width="110" height="50" as="geometry" />
        </mxCell>
        <mxCell id="QeVsfK4hTUTbqEL9YIG4-32" value="" style="endArrow=none;html=1;rounded=0;exitX=0.5;exitY=1;exitDx=0;exitDy=0;labelBackgroundColor=none;fontColor=default;" parent="1" source="QeVsfK4hTUTbqEL9YIG4-15" target="QeVsfK4hTUTbqEL9YIG4-33" edge="1">
          <mxGeometry relative="1" as="geometry">
            <mxPoint x="-180" y="240" as="sourcePoint" />
            <mxPoint x="-22" y="440" as="targetPoint" />
          </mxGeometry>
        </mxCell>
        <mxCell id="QeVsfK4hTUTbqEL9YIG4-36" value="1" style="edgeLabel;html=1;align=center;verticalAlign=middle;resizable=0;points=[];labelBackgroundColor=none;" parent="QeVsfK4hTUTbqEL9YIG4-32" vertex="1" connectable="0">
          <mxGeometry x="0.744" relative="1" as="geometry">
            <mxPoint as="offset" />
          </mxGeometry>
        </mxCell>
        <mxCell id="QeVsfK4hTUTbqEL9YIG4-33" value="administrates&amp;nbsp;" style="shape=rhombus;perimeter=rhombusPerimeter;whiteSpace=wrap;html=1;align=center;labelBackgroundColor=none;" parent="1" vertex="1">
          <mxGeometry x="-230" y="400" width="120" height="60" as="geometry" />
        </mxCell>
        <mxCell id="QeVsfK4hTUTbqEL9YIG4-34" value="" style="endArrow=none;html=1;rounded=0;exitX=0.5;exitY=1;exitDx=0;exitDy=0;entryX=0;entryY=0.5;entryDx=0;entryDy=0;labelBackgroundColor=none;fontColor=default;" parent="1" source="QeVsfK4hTUTbqEL9YIG4-33" target="QeVsfK4hTUTbqEL9YIG4-21" edge="1">
          <mxGeometry relative="1" as="geometry">
            <mxPoint x="-60" y="520" as="sourcePoint" />
            <mxPoint x="-20" y="550" as="targetPoint" />
            <Array as="points">
              <mxPoint x="-170" y="623" />
            </Array>
          </mxGeometry>
        </mxCell>
        <mxCell id="QeVsfK4hTUTbqEL9YIG4-37" value="N" style="edgeLabel;html=1;align=center;verticalAlign=middle;resizable=0;points=[];labelBackgroundColor=none;" parent="QeVsfK4hTUTbqEL9YIG4-34" vertex="1" connectable="0">
          <mxGeometry x="-0.7619" y="-2" relative="1" as="geometry">
            <mxPoint as="offset" />
          </mxGeometry>
        </mxCell>
        <mxCell id="QeVsfK4hTUTbqEL9YIG4-35" value="" style="endArrow=none;html=1;rounded=0;exitX=0.5;exitY=1;exitDx=0;exitDy=0;entryX=0.5;entryY=0;entryDx=0;entryDy=0;labelBackgroundColor=none;fontColor=default;" parent="1" source="QeVsfK4hTUTbqEL9YIG4-16" target="QeVsfK4hTUTbqEL9YIG4-38" edge="1">
          <mxGeometry relative="1" as="geometry">
            <mxPoint x="80" y="330" as="sourcePoint" />
            <mxPoint x="110" y="370" as="targetPoint" />
          </mxGeometry>
        </mxCell>
        <mxCell id="QeVsfK4hTUTbqEL9YIG4-38" value="teaches" style="shape=rhombus;perimeter=rhombusPerimeter;whiteSpace=wrap;html=1;align=center;labelBackgroundColor=none;" parent="1" vertex="1">
          <mxGeometry x="50" y="395" width="120" height="60" as="geometry" />
        </mxCell>
        <mxCell id="QeVsfK4hTUTbqEL9YIG4-39" value="" style="endArrow=none;html=1;rounded=0;exitX=0.5;exitY=1;exitDx=0;exitDy=0;entryX=0.5;entryY=0;entryDx=0;entryDy=0;labelBackgroundColor=none;fontColor=default;" parent="1" source="QeVsfK4hTUTbqEL9YIG4-38" target="QeVsfK4hTUTbqEL9YIG4-21" edge="1">
          <mxGeometry relative="1" as="geometry">
            <mxPoint x="90" y="510" as="sourcePoint" />
            <mxPoint x="110" y="590" as="targetPoint" />
          </mxGeometry>
        </mxCell>
        <mxCell id="QeVsfK4hTUTbqEL9YIG4-41" value="N" style="edgeLabel;html=1;align=center;verticalAlign=middle;resizable=0;points=[];labelBackgroundColor=none;" parent="QeVsfK4hTUTbqEL9YIG4-39" vertex="1" connectable="0">
          <mxGeometry x="-0.6486" y="-3" relative="1" as="geometry">
            <mxPoint as="offset" />
          </mxGeometry>
        </mxCell>
        <mxCell id="QeVsfK4hTUTbqEL9YIG4-42" value="" style="endArrow=none;html=1;rounded=0;entryX=0.06;entryY=0.483;entryDx=0;entryDy=0;entryPerimeter=0;labelBackgroundColor=none;fontColor=default;" parent="1" target="QeVsfK4hTUTbqEL9YIG4-44" edge="1">
          <mxGeometry relative="1" as="geometry">
            <mxPoint x="200" y="630" as="sourcePoint" />
            <mxPoint x="425" y="614.5" as="targetPoint" />
          </mxGeometry>
        </mxCell>
        <mxCell id="QeVsfK4hTUTbqEL9YIG4-62" value="1" style="edgeLabel;html=1;align=center;verticalAlign=middle;resizable=0;points=[];labelBackgroundColor=none;" parent="QeVsfK4hTUTbqEL9YIG4-42" vertex="1" connectable="0">
          <mxGeometry x="0.4206" y="2" relative="1" as="geometry">
            <mxPoint as="offset" />
          </mxGeometry>
        </mxCell>
        <mxCell id="QeVsfK4hTUTbqEL9YIG4-44" value="contains" style="shape=rhombus;perimeter=rhombusPerimeter;whiteSpace=wrap;html=1;align=center;labelBackgroundColor=none;" parent="1" vertex="1">
          <mxGeometry x="570" y="600" width="110" height="55" as="geometry" />
        </mxCell>
        <mxCell id="QeVsfK4hTUTbqEL9YIG4-45" value="" style="endArrow=none;html=1;rounded=0;exitX=1;exitY=0.5;exitDx=0;exitDy=0;entryX=0;entryY=0.5;entryDx=0;entryDy=0;labelBackgroundColor=none;fontColor=default;" parent="1" source="QeVsfK4hTUTbqEL9YIG4-44" target="QeVsfK4hTUTbqEL9YIG4-46" edge="1">
          <mxGeometry relative="1" as="geometry">
            <mxPoint x="490" y="615" as="sourcePoint" />
            <mxPoint x="650" y="614.5" as="targetPoint" />
          </mxGeometry>
        </mxCell>
        <mxCell id="QeVsfK4hTUTbqEL9YIG4-63" value="N" style="edgeLabel;html=1;align=center;verticalAlign=middle;resizable=0;points=[];labelBackgroundColor=none;" parent="QeVsfK4hTUTbqEL9YIG4-45" vertex="1" connectable="0">
          <mxGeometry x="-0.6073" y="-1" relative="1" as="geometry">
            <mxPoint as="offset" />
          </mxGeometry>
        </mxCell>
        <mxCell id="QeVsfK4hTUTbqEL9YIG4-46" value="Assignment" style="whiteSpace=wrap;html=1;align=center;labelBackgroundColor=none;" parent="1" vertex="1">
          <mxGeometry x="939.92" y="605" width="110" height="45" as="geometry" />
        </mxCell>
        <mxCell id="QeVsfK4hTUTbqEL9YIG4-49" value="" style="endArrow=none;html=1;rounded=0;entryX=0.5;entryY=0;entryDx=0;entryDy=0;exitX=0.5;exitY=1;exitDx=0;exitDy=0;labelBackgroundColor=none;fontColor=default;" parent="1" source="QeVsfK4hTUTbqEL9YIG4-50" target="QeVsfK4hTUTbqEL9YIG4-46" edge="1">
          <mxGeometry relative="1" as="geometry">
            <mxPoint x="729.92" y="500" as="sourcePoint" />
            <mxPoint x="804.92" y="500" as="targetPoint" />
          </mxGeometry>
        </mxCell>
        <mxCell id="QeVsfK4hTUTbqEL9YIG4-60" value="1" style="edgeLabel;html=1;align=center;verticalAlign=middle;resizable=0;points=[];labelBackgroundColor=none;" parent="QeVsfK4hTUTbqEL9YIG4-49" vertex="1" connectable="0">
          <mxGeometry x="-0.4465" y="2" relative="1" as="geometry">
            <mxPoint as="offset" />
          </mxGeometry>
        </mxCell>
        <mxCell id="QeVsfK4hTUTbqEL9YIG4-50" value="includes" style="shape=rhombus;perimeter=rhombusPerimeter;whiteSpace=wrap;html=1;align=center;labelBackgroundColor=none;" parent="1" vertex="1">
          <mxGeometry x="939.92" y="450" width="110" height="50" as="geometry" />
        </mxCell>
        <mxCell id="QeVsfK4hTUTbqEL9YIG4-53" value="Submission" style="rounded=1;arcSize=10;whiteSpace=wrap;html=1;align=center;labelBackgroundColor=none;" parent="1" vertex="1">
          <mxGeometry x="944.92" y="315" width="100" height="40" as="geometry" />
        </mxCell>
        <mxCell id="QeVsfK4hTUTbqEL9YIG4-54" value="" style="endArrow=none;html=1;rounded=0;entryX=0;entryY=0.5;entryDx=0;entryDy=0;exitX=1;exitY=0.5;exitDx=0;exitDy=0;labelBackgroundColor=none;fontColor=default;" parent="1" source="QeVsfK4hTUTbqEL9YIG4-17" target="QeVsfK4hTUTbqEL9YIG4-55" edge="1">
          <mxGeometry relative="1" as="geometry">
            <mxPoint x="290" y="209.5" as="sourcePoint" />
            <mxPoint x="450" y="209.5" as="targetPoint" />
          </mxGeometry>
        </mxCell>
        <mxCell id="QeVsfK4hTUTbqEL9YIG4-58" value="1" style="edgeLabel;html=1;align=center;verticalAlign=middle;resizable=0;points=[];labelBackgroundColor=none;" parent="QeVsfK4hTUTbqEL9YIG4-54" vertex="1" connectable="0">
          <mxGeometry x="0.611" y="-1" relative="1" as="geometry">
            <mxPoint as="offset" />
          </mxGeometry>
        </mxCell>
        <mxCell id="QeVsfK4hTUTbqEL9YIG4-55" value="turns in&amp;nbsp;" style="shape=rhombus;perimeter=rhombusPerimeter;whiteSpace=wrap;html=1;align=center;labelBackgroundColor=none;" parent="1" vertex="1">
          <mxGeometry x="934.92" y="170" width="120" height="60" as="geometry" />
        </mxCell>
        <mxCell id="QeVsfK4hTUTbqEL9YIG4-57" value="" style="endArrow=none;html=1;rounded=0;entryX=0.5;entryY=0;entryDx=0;entryDy=0;exitX=0.5;exitY=1;exitDx=0;exitDy=0;labelBackgroundColor=none;fontColor=default;" parent="1" source="QeVsfK4hTUTbqEL9YIG4-55" target="QeVsfK4hTUTbqEL9YIG4-53" edge="1">
          <mxGeometry relative="1" as="geometry">
            <mxPoint x="984.92" y="240" as="sourcePoint" />
            <mxPoint x="939.92" y="290" as="targetPoint" />
            <Array as="points" />
          </mxGeometry>
        </mxCell>
        <mxCell id="QeVsfK4hTUTbqEL9YIG4-59" value="1" style="edgeLabel;html=1;align=center;verticalAlign=middle;resizable=0;points=[];labelBackgroundColor=none;" parent="QeVsfK4hTUTbqEL9YIG4-57" vertex="1" connectable="0">
          <mxGeometry x="-0.7017" y="2" relative="1" as="geometry">
            <mxPoint as="offset" />
          </mxGeometry>
        </mxCell>
        <mxCell id="QeVsfK4hTUTbqEL9YIG4-64" value="" style="endArrow=none;html=1;rounded=0;exitX=0.5;exitY=0;exitDx=0;exitDy=0;labelBackgroundColor=none;fontColor=default;" parent="1" source="QeVsfK4hTUTbqEL9YIG4-65" edge="1">
          <mxGeometry relative="1" as="geometry">
            <mxPoint x="-60" y="700" as="sourcePoint" />
            <mxPoint x="60" y="650" as="targetPoint" />
            <Array as="points">
              <mxPoint x="10" y="700" />
              <mxPoint x="10" y="690" />
              <mxPoint x="60" y="690" />
            </Array>
          </mxGeometry>
        </mxCell>
        <mxCell id="QeVsfK4hTUTbqEL9YIG4-78" value="1" style="edgeLabel;html=1;align=center;verticalAlign=middle;resizable=0;points=[];labelBackgroundColor=none;" parent="QeVsfK4hTUTbqEL9YIG4-64" vertex="1" connectable="0">
          <mxGeometry x="-0.7456" y="-1" relative="1" as="geometry">
            <mxPoint as="offset" />
          </mxGeometry>
        </mxCell>
        <mxCell id="QeVsfK4hTUTbqEL9YIG4-65" value="provides" style="shape=rhombus;perimeter=rhombusPerimeter;whiteSpace=wrap;html=1;align=center;labelBackgroundColor=none;" parent="1" vertex="1">
          <mxGeometry x="-50" y="780" width="120" height="60" as="geometry" />
        </mxCell>
        <mxCell id="QeVsfK4hTUTbqEL9YIG4-75" value="" style="endArrow=none;html=1;rounded=0;entryX=0.5;entryY=1;entryDx=0;entryDy=0;exitX=0.5;exitY=0;exitDx=0;exitDy=0;labelBackgroundColor=none;fontColor=default;" parent="1" source="QeVsfK4hTUTbqEL9YIG4-77" target="QeVsfK4hTUTbqEL9YIG4-65" edge="1">
          <mxGeometry relative="1" as="geometry">
            <mxPoint x="-390" y="700" as="sourcePoint" />
            <mxPoint x="-230" y="700" as="targetPoint" />
          </mxGeometry>
        </mxCell>
        <mxCell id="QeVsfK4hTUTbqEL9YIG4-79" value="N" style="edgeLabel;html=1;align=center;verticalAlign=middle;resizable=0;points=[];labelBackgroundColor=none;" parent="QeVsfK4hTUTbqEL9YIG4-75" vertex="1" connectable="0">
          <mxGeometry x="0.685" relative="1" as="geometry">
            <mxPoint as="offset" />
          </mxGeometry>
        </mxCell>
        <mxCell id="QeVsfK4hTUTbqEL9YIG4-77" value="Content" style="whiteSpace=wrap;html=1;align=center;labelBackgroundColor=none;" parent="1" vertex="1">
          <mxGeometry x="-40" y="950" width="100" height="50" as="geometry" />
        </mxCell>
        <mxCell id="QeVsfK4hTUTbqEL9YIG4-80" value="" style="endArrow=none;html=1;rounded=0;exitX=0.75;exitY=1;exitDx=0;exitDy=0;entryX=0.5;entryY=0;entryDx=0;entryDy=0;labelBackgroundColor=none;fontColor=default;" parent="1" target="QeVsfK4hTUTbqEL9YIG4-81" edge="1">
          <mxGeometry relative="1" as="geometry">
            <mxPoint x="140" y="647.5" as="sourcePoint" />
            <mxPoint x="200" y="760" as="targetPoint" />
            <Array as="points">
              <mxPoint x="140" y="690" />
              <mxPoint x="200" y="690" />
            </Array>
          </mxGeometry>
        </mxCell>
        <mxCell id="QeVsfK4hTUTbqEL9YIG4-97" value="1" style="edgeLabel;html=1;align=center;verticalAlign=middle;resizable=0;points=[];labelBackgroundColor=none;" parent="QeVsfK4hTUTbqEL9YIG4-80" vertex="1" connectable="0">
          <mxGeometry x="0.8358" y="2" relative="1" as="geometry">
            <mxPoint as="offset" />
          </mxGeometry>
        </mxCell>
        <mxCell id="QeVsfK4hTUTbqEL9YIG4-81" value="consists of" style="shape=rhombus;perimeter=rhombusPerimeter;whiteSpace=wrap;html=1;align=center;labelBackgroundColor=none;" parent="1" vertex="1">
          <mxGeometry x="140" y="780" width="120" height="60" as="geometry" />
        </mxCell>
        <mxCell id="QeVsfK4hTUTbqEL9YIG4-82" value="" style="endArrow=none;html=1;rounded=0;exitX=0.5;exitY=1;exitDx=0;exitDy=0;labelBackgroundColor=none;fontColor=default;" parent="1" source="QeVsfK4hTUTbqEL9YIG4-81" target="QeVsfK4hTUTbqEL9YIG4-83" edge="1">
          <mxGeometry relative="1" as="geometry">
            <mxPoint x="170" y="910" as="sourcePoint" />
            <mxPoint x="220" y="920" as="targetPoint" />
          </mxGeometry>
        </mxCell>
        <mxCell id="QeVsfK4hTUTbqEL9YIG4-98" value="1" style="edgeLabel;html=1;align=center;verticalAlign=middle;resizable=0;points=[];labelBackgroundColor=none;" parent="QeVsfK4hTUTbqEL9YIG4-82" vertex="1" connectable="0">
          <mxGeometry x="-0.56" y="2" relative="1" as="geometry">
            <mxPoint as="offset" />
          </mxGeometry>
        </mxCell>
        <mxCell id="QeVsfK4hTUTbqEL9YIG4-83" value="Schedule" style="whiteSpace=wrap;html=1;align=center;labelBackgroundColor=none;" parent="1" vertex="1">
          <mxGeometry x="145" y="950" width="110" height="50" as="geometry" />
        </mxCell>
        <mxCell id="QeVsfK4hTUTbqEL9YIG4-86" value="Certification" style="whiteSpace=wrap;html=1;align=center;labelBackgroundColor=none;" parent="1" vertex="1">
          <mxGeometry x="642" y="-125" width="100" height="40" as="geometry" />
        </mxCell>
        <mxCell id="QeVsfK4hTUTbqEL9YIG4-93" value="" style="endArrow=none;html=1;rounded=0;entryX=0.5;entryY=1;entryDx=0;entryDy=0;exitX=0.895;exitY=0.006;exitDx=0;exitDy=0;exitPerimeter=0;labelBackgroundColor=none;fontColor=default;" parent="1" source="QeVsfK4hTUTbqEL9YIG4-21" target="QeVsfK4hTUTbqEL9YIG4-24" edge="1">
          <mxGeometry relative="1" as="geometry">
            <mxPoint x="180" y="590" as="sourcePoint" />
            <mxPoint x="340" y="420" as="targetPoint" />
            <Array as="points">
              <mxPoint x="177" y="520" />
              <mxPoint x="400" y="520" />
            </Array>
          </mxGeometry>
        </mxCell>
        <mxCell id="QeVsfK4hTUTbqEL9YIG4-94" value="N" style="edgeLabel;html=1;align=center;verticalAlign=middle;resizable=0;points=[];labelBackgroundColor=none;" parent="QeVsfK4hTUTbqEL9YIG4-93" vertex="1" connectable="0">
          <mxGeometry x="0.8769" relative="1" as="geometry">
            <mxPoint as="offset" />
          </mxGeometry>
        </mxCell>
        <mxCell id="QeVsfK4hTUTbqEL9YIG4-130" value="last_name" style="ellipse;whiteSpace=wrap;html=1;align=center;labelBackgroundColor=none;" parent="1" vertex="1">
          <mxGeometry x="31.25" y="-52.5" width="80" height="30" as="geometry" />
        </mxCell>
        <mxCell id="QeVsfK4hTUTbqEL9YIG4-133" value="email" style="ellipse;whiteSpace=wrap;html=1;align=center;labelBackgroundColor=none;" parent="1" vertex="1">
          <mxGeometry x="120" y="-52.5" width="75" height="30" as="geometry" />
        </mxCell>
        <mxCell id="QeVsfK4hTUTbqEL9YIG4-134" value="" style="endArrow=none;html=1;rounded=0;entryX=0.584;entryY=-0.045;entryDx=0;entryDy=0;entryPerimeter=0;labelBackgroundColor=none;fontColor=default;" parent="1" source="QeVsfK4hTUTbqEL9YIG4-133" target="QeVsfK4hTUTbqEL9YIG4-1" edge="1">
          <mxGeometry relative="1" as="geometry">
            <mxPoint x="100" y="270" as="sourcePoint" />
            <mxPoint x="135" y="30" as="targetPoint" />
          </mxGeometry>
        </mxCell>
        <mxCell id="QeVsfK4hTUTbqEL9YIG4-135" value="" style="endArrow=none;html=1;rounded=0;exitX=0;exitY=0;exitDx=0;exitDy=0;labelBackgroundColor=none;fontColor=default;" parent="1" source="QeVsfK4hTUTbqEL9YIG4-1" target="QeVsfK4hTUTbqEL9YIG4-136" edge="1">
          <mxGeometry relative="1" as="geometry">
            <mxPoint x="160" y="160" as="sourcePoint" />
            <mxPoint x="320" y="160" as="targetPoint" />
          </mxGeometry>
        </mxCell>
        <mxCell id="QeVsfK4hTUTbqEL9YIG4-136" value="name" style="ellipse;whiteSpace=wrap;html=1;align=center;labelBackgroundColor=none;" parent="1" vertex="1">
          <mxGeometry x="-48.75" y="-30" width="80" height="30" as="geometry" />
        </mxCell>
        <mxCell id="QeVsfK4hTUTbqEL9YIG4-137" value="" style="endArrow=none;html=1;rounded=0;exitX=0.5;exitY=1;exitDx=0;exitDy=0;entryX=0.25;entryY=0;entryDx=0;entryDy=0;labelBackgroundColor=none;fontColor=default;" parent="1" source="QeVsfK4hTUTbqEL9YIG4-130" target="QeVsfK4hTUTbqEL9YIG4-1" edge="1">
          <mxGeometry relative="1" as="geometry">
            <mxPoint x="160" y="160" as="sourcePoint" />
            <mxPoint x="320" y="160" as="targetPoint" />
          </mxGeometry>
        </mxCell>
        <mxCell id="QeVsfK4hTUTbqEL9YIG4-152" value="certificate_id" style="ellipse;whiteSpace=wrap;html=1;align=center;fontStyle=4;labelBackgroundColor=none;" parent="1" vertex="1">
          <mxGeometry x="560" y="-215" width="70" height="40" as="geometry" />
        </mxCell>
        <mxCell id="QeVsfK4hTUTbqEL9YIG4-158" value="&lt;span style=&quot;border-bottom: 1px dotted&quot;&gt;std_id&lt;/span&gt;" style="ellipse;whiteSpace=wrap;html=1;align=center;labelBackgroundColor=none;" parent="1" vertex="1">
          <mxGeometry x="680" y="-215" width="80" height="40" as="geometry" />
        </mxCell>
        <mxCell id="QeVsfK4hTUTbqEL9YIG4-159" value="" style="endArrow=none;html=1;rounded=0;exitX=0.788;exitY=0.075;exitDx=0;exitDy=0;exitPerimeter=0;entryX=0;entryY=0.75;entryDx=0;entryDy=0;labelBackgroundColor=none;fontColor=default;" parent="1" source="QeVsfK4hTUTbqEL9YIG4-170" target="QeVsfK4hTUTbqEL9YIG4-21" edge="1">
          <mxGeometry relative="1" as="geometry">
            <mxPoint x="-20" y="655" as="sourcePoint" />
            <mxPoint x="140" y="655" as="targetPoint" />
          </mxGeometry>
        </mxCell>
        <mxCell id="QeVsfK4hTUTbqEL9YIG4-160" value="" style="endArrow=none;html=1;rounded=0;exitX=0.744;exitY=0.975;exitDx=0;exitDy=0;exitPerimeter=0;entryX=0.25;entryY=0;entryDx=0;entryDy=0;labelBackgroundColor=none;fontColor=default;" parent="1" source="QeVsfK4hTUTbqEL9YIG4-167" target="QeVsfK4hTUTbqEL9YIG4-21" edge="1">
          <mxGeometry relative="1" as="geometry">
            <mxPoint x="190" y="560" as="sourcePoint" />
            <mxPoint x="350" y="560" as="targetPoint" />
          </mxGeometry>
        </mxCell>
        <mxCell id="QeVsfK4hTUTbqEL9YIG4-162" value="" style="endArrow=none;html=1;rounded=0;exitX=0.412;exitY=1.065;exitDx=0;exitDy=0;exitPerimeter=0;entryX=0.25;entryY=0;entryDx=0;entryDy=0;labelBackgroundColor=none;fontColor=default;" parent="1" source="QeVsfK4hTUTbqEL9YIG4-152" target="QeVsfK4hTUTbqEL9YIG4-86" edge="1">
          <mxGeometry relative="1" as="geometry">
            <mxPoint x="572" y="-140" as="sourcePoint" />
            <mxPoint x="732" y="-140" as="targetPoint" />
          </mxGeometry>
        </mxCell>
        <mxCell id="QeVsfK4hTUTbqEL9YIG4-163" value="" style="endArrow=none;html=1;rounded=0;entryX=0.285;entryY=0.95;entryDx=0;entryDy=0;entryPerimeter=0;exitX=0.75;exitY=0;exitDx=0;exitDy=0;labelBackgroundColor=none;fontColor=default;" parent="1" source="QeVsfK4hTUTbqEL9YIG4-86" target="QeVsfK4hTUTbqEL9YIG4-158" edge="1">
          <mxGeometry relative="1" as="geometry">
            <mxPoint x="732" y="-130" as="sourcePoint" />
            <mxPoint x="782" y="-160" as="targetPoint" />
          </mxGeometry>
        </mxCell>
        <mxCell id="QeVsfK4hTUTbqEL9YIG4-165" value="schedule_id" style="ellipse;whiteSpace=wrap;html=1;align=center;fontStyle=4;labelBackgroundColor=none;" parent="1" vertex="1">
          <mxGeometry x="310" y="930" width="90" height="40" as="geometry" />
        </mxCell>
        <mxCell id="QeVsfK4hTUTbqEL9YIG4-166" value="sub_id" style="ellipse;whiteSpace=wrap;html=1;align=center;fontStyle=4;labelBackgroundColor=none;" parent="1" vertex="1">
          <mxGeometry x="1034.92" y="250" width="80" height="35" as="geometry" />
        </mxCell>
        <mxCell id="QeVsfK4hTUTbqEL9YIG4-167" value="course_id" style="ellipse;whiteSpace=wrap;html=1;align=center;fontStyle=4;labelBackgroundColor=none;" parent="1" vertex="1">
          <mxGeometry x="-20" y="530" width="100" height="40" as="geometry" />
        </mxCell>
        <mxCell id="QeVsfK4hTUTbqEL9YIG4-168" value="assig_id" style="ellipse;whiteSpace=wrap;html=1;align=center;fontStyle=4;labelBackgroundColor=none;" parent="1" vertex="1">
          <mxGeometry x="944.92" y="710" width="100" height="40" as="geometry" />
        </mxCell>
        <mxCell id="QeVsfK4hTUTbqEL9YIG4-170" value="description" style="ellipse;whiteSpace=wrap;html=1;align=center;labelBackgroundColor=none;" parent="1" vertex="1">
          <mxGeometry x="-110" y="680" width="100" height="40" as="geometry" />
        </mxCell>
        <mxCell id="QeVsfK4hTUTbqEL9YIG4-172" value="&lt;span style=&quot;border-bottom: 1px dotted&quot;&gt;course_id&lt;/span&gt;" style="ellipse;whiteSpace=wrap;html=1;align=center;labelBackgroundColor=none;" parent="1" vertex="1">
          <mxGeometry x="835" y="690" width="100" height="40" as="geometry" />
        </mxCell>
        <mxCell id="QeVsfK4hTUTbqEL9YIG4-173" value="&lt;span style=&quot;border-bottom: 1px dotted&quot;&gt;assig_id&lt;/span&gt;" style="ellipse;whiteSpace=wrap;html=1;align=center;labelBackgroundColor=none;" parent="1" vertex="1">
          <mxGeometry x="1034.92" y="400" width="80" height="40" as="geometry" />
        </mxCell>
        <mxCell id="QeVsfK4hTUTbqEL9YIG4-174" value="&lt;span style=&quot;border-bottom: 1px dotted&quot;&gt;std_id&lt;/span&gt;" style="ellipse;whiteSpace=wrap;html=1;align=center;labelBackgroundColor=none;" parent="1" vertex="1">
          <mxGeometry x="1104.92" y="300" width="80" height="40" as="geometry" />
        </mxCell>
        <mxCell id="QeVsfK4hTUTbqEL9YIG4-176" value="&lt;span style=&quot;border-bottom: 1px dotted&quot;&gt;course_id&lt;/span&gt;" style="ellipse;whiteSpace=wrap;html=1;align=center;labelBackgroundColor=none;" parent="1" vertex="1">
          <mxGeometry x="293" y="1000" width="90" height="40" as="geometry" />
        </mxCell>
        <mxCell id="QeVsfK4hTUTbqEL9YIG4-177" value="content_description" style="ellipse;whiteSpace=wrap;html=1;align=center;labelBackgroundColor=none;" parent="1" vertex="1">
          <mxGeometry x="-185" y="1020" width="110" height="40" as="geometry" />
        </mxCell>
        <mxCell id="QeVsfK4hTUTbqEL9YIG4-178" value="start_date" style="ellipse;whiteSpace=wrap;html=1;align=center;labelBackgroundColor=none;" parent="1" vertex="1">
          <mxGeometry x="120" y="1055" width="80" height="40" as="geometry" />
        </mxCell>
        <mxCell id="QeVsfK4hTUTbqEL9YIG4-179" value="end_date" style="ellipse;whiteSpace=wrap;html=1;align=center;labelBackgroundColor=none;" parent="1" vertex="1">
          <mxGeometry x="220" y="1050" width="80" height="45" as="geometry" />
        </mxCell>
        <mxCell id="QeVsfK4hTUTbqEL9YIG4-181" value="" style="endArrow=none;html=1;rounded=0;exitX=0.5;exitY=1;exitDx=0;exitDy=0;entryX=0.5;entryY=0;entryDx=0;entryDy=0;labelBackgroundColor=none;fontColor=default;" parent="1" source="QeVsfK4hTUTbqEL9YIG4-46" target="QeVsfK4hTUTbqEL9YIG4-168" edge="1">
          <mxGeometry relative="1" as="geometry">
            <mxPoint x="824.92" y="790" as="sourcePoint" />
            <mxPoint x="984.92" y="790" as="targetPoint" />
          </mxGeometry>
        </mxCell>
        <mxCell id="QeVsfK4hTUTbqEL9YIG4-182" value="" style="endArrow=none;html=1;rounded=0;exitX=0.25;exitY=1;exitDx=0;exitDy=0;entryX=0.5;entryY=0;entryDx=0;entryDy=0;labelBackgroundColor=none;fontColor=default;" parent="1" source="QeVsfK4hTUTbqEL9YIG4-83" target="QeVsfK4hTUTbqEL9YIG4-178" edge="1">
          <mxGeometry relative="1" as="geometry">
            <mxPoint x="190" y="1010" as="sourcePoint" />
            <mxPoint x="350" y="1010" as="targetPoint" />
          </mxGeometry>
        </mxCell>
        <mxCell id="QeVsfK4hTUTbqEL9YIG4-183" value="" style="endArrow=none;html=1;rounded=0;exitX=0.75;exitY=1;exitDx=0;exitDy=0;entryX=0.5;entryY=0;entryDx=0;entryDy=0;labelBackgroundColor=none;fontColor=default;" parent="1" source="QeVsfK4hTUTbqEL9YIG4-83" target="QeVsfK4hTUTbqEL9YIG4-179" edge="1">
          <mxGeometry relative="1" as="geometry">
            <mxPoint x="360" y="900" as="sourcePoint" />
            <mxPoint x="520" y="900" as="targetPoint" />
          </mxGeometry>
        </mxCell>
        <mxCell id="QeVsfK4hTUTbqEL9YIG4-184" value="" style="endArrow=none;html=1;rounded=0;exitX=1;exitY=0.75;exitDx=0;exitDy=0;entryX=0;entryY=0;entryDx=0;entryDy=0;labelBackgroundColor=none;fontColor=default;" parent="1" source="QeVsfK4hTUTbqEL9YIG4-83" target="QeVsfK4hTUTbqEL9YIG4-176" edge="1">
          <mxGeometry relative="1" as="geometry">
            <mxPoint x="360" y="900" as="sourcePoint" />
            <mxPoint x="520" y="900" as="targetPoint" />
          </mxGeometry>
        </mxCell>
        <mxCell id="QeVsfK4hTUTbqEL9YIG4-185" value="" style="endArrow=none;html=1;rounded=0;exitX=1;exitY=0.25;exitDx=0;exitDy=0;entryX=0;entryY=0.5;entryDx=0;entryDy=0;labelBackgroundColor=none;fontColor=default;" parent="1" source="QeVsfK4hTUTbqEL9YIG4-83" target="QeVsfK4hTUTbqEL9YIG4-165" edge="1">
          <mxGeometry relative="1" as="geometry">
            <mxPoint x="360" y="900" as="sourcePoint" />
            <mxPoint x="520" y="900" as="targetPoint" />
          </mxGeometry>
        </mxCell>
        <mxCell id="QeVsfK4hTUTbqEL9YIG4-187" value="&lt;span style=&quot;border-bottom: 1px dotted&quot;&gt;course_id&lt;/span&gt;" style="ellipse;whiteSpace=wrap;html=1;align=center;labelBackgroundColor=none;" parent="1" vertex="1">
          <mxGeometry x="-50" y="1040" width="100" height="40" as="geometry" />
        </mxCell>
        <mxCell id="QeVsfK4hTUTbqEL9YIG4-188" value="" style="endArrow=none;html=1;rounded=0;entryX=0.5;entryY=1;entryDx=0;entryDy=0;exitX=0.5;exitY=0;exitDx=0;exitDy=0;labelBackgroundColor=none;fontColor=default;" parent="1" source="QeVsfK4hTUTbqEL9YIG4-187" target="QeVsfK4hTUTbqEL9YIG4-77" edge="1">
          <mxGeometry relative="1" as="geometry">
            <mxPoint y="1039" as="sourcePoint" />
            <mxPoint x="160" y="1039" as="targetPoint" />
          </mxGeometry>
        </mxCell>
        <mxCell id="QeVsfK4hTUTbqEL9YIG4-189" value="" style="endArrow=none;html=1;rounded=0;exitX=0.5;exitY=0;exitDx=0;exitDy=0;labelBackgroundColor=none;fontColor=default;" parent="1" source="QeVsfK4hTUTbqEL9YIG4-177" edge="1">
          <mxGeometry relative="1" as="geometry">
            <mxPoint x="-200" y="980" as="sourcePoint" />
            <mxPoint x="-40" y="980" as="targetPoint" />
          </mxGeometry>
        </mxCell>
        <mxCell id="QeVsfK4hTUTbqEL9YIG4-192" value="" style="endArrow=none;html=1;rounded=0;entryX=0.5;entryY=0;entryDx=0;entryDy=0;exitX=1;exitY=1;exitDx=0;exitDy=0;labelBackgroundColor=none;fontColor=default;" parent="1" source="QeVsfK4hTUTbqEL9YIG4-53" target="QeVsfK4hTUTbqEL9YIG4-173" edge="1">
          <mxGeometry relative="1" as="geometry">
            <mxPoint x="914.92" y="370" as="sourcePoint" />
            <mxPoint x="1074.92" y="370" as="targetPoint" />
          </mxGeometry>
        </mxCell>
        <mxCell id="QeVsfK4hTUTbqEL9YIG4-193" value="" style="endArrow=none;html=1;rounded=0;exitX=1;exitY=0.5;exitDx=0;exitDy=0;entryX=0;entryY=0.5;entryDx=0;entryDy=0;labelBackgroundColor=none;fontColor=default;" parent="1" source="QeVsfK4hTUTbqEL9YIG4-53" target="QeVsfK4hTUTbqEL9YIG4-174" edge="1">
          <mxGeometry relative="1" as="geometry">
            <mxPoint x="934.92" y="329.5" as="sourcePoint" />
            <mxPoint x="1094.92" y="329.5" as="targetPoint" />
            <Array as="points" />
          </mxGeometry>
        </mxCell>
        <mxCell id="QeVsfK4hTUTbqEL9YIG4-194" value="" style="endArrow=none;html=1;rounded=0;exitX=0.688;exitY=0.05;exitDx=0;exitDy=0;exitPerimeter=0;entryX=0.5;entryY=1;entryDx=0;entryDy=0;labelBackgroundColor=none;fontColor=default;" parent="1" source="QeVsfK4hTUTbqEL9YIG4-53" target="QeVsfK4hTUTbqEL9YIG4-166" edge="1">
          <mxGeometry relative="1" as="geometry">
            <mxPoint x="884.92" y="269.5" as="sourcePoint" />
            <mxPoint x="1044.92" y="269.5" as="targetPoint" />
          </mxGeometry>
        </mxCell>
        <mxCell id="QeVsfK4hTUTbqEL9YIG4-196" value="" style="endArrow=none;html=1;rounded=0;entryX=0.25;entryY=1;entryDx=0;entryDy=0;exitX=1;exitY=0;exitDx=0;exitDy=0;labelBackgroundColor=none;fontColor=default;" parent="1" target="QeVsfK4hTUTbqEL9YIG4-46" edge="1">
          <mxGeometry relative="1" as="geometry">
            <mxPoint x="910.0002126497678" y="695.7486636110316" as="sourcePoint" />
            <mxPoint x="944.92" y="680" as="targetPoint" />
          </mxGeometry>
        </mxCell>
        <mxCell id="sk798J-t8S1_1swlPKjx-3" value="" style="endArrow=none;html=1;rounded=0;exitX=1;exitY=1;exitDx=0;exitDy=0;labelBackgroundColor=none;fontColor=default;" parent="1" source="QeVsfK4hTUTbqEL9YIG4-1" target="sk798J-t8S1_1swlPKjx-4" edge="1">
          <mxGeometry relative="1" as="geometry">
            <mxPoint x="160" y="49.5" as="sourcePoint" />
            <mxPoint x="240" y="50" as="targetPoint" />
          </mxGeometry>
        </mxCell>
        <mxCell id="sk798J-t8S1_1swlPKjx-4" value="type" style="ellipse;whiteSpace=wrap;html=1;align=center;labelBackgroundColor=none;" parent="1" vertex="1">
          <mxGeometry x="190" y="72.5" width="80" height="30" as="geometry" />
        </mxCell>
        <mxCell id="sk798J-t8S1_1swlPKjx-7" value="" style="endArrow=none;html=1;rounded=0;exitX=1;exitY=0.5;exitDx=0;exitDy=0;labelBackgroundColor=none;fontColor=default;" parent="1" source="sk798J-t8S1_1swlPKjx-8" edge="1">
          <mxGeometry relative="1" as="geometry">
            <mxPoint x="20" y="50" as="sourcePoint" />
            <mxPoint x="60" y="70" as="targetPoint" />
          </mxGeometry>
        </mxCell>
        <mxCell id="sk798J-t8S1_1swlPKjx-8" value="user_id" style="ellipse;whiteSpace=wrap;html=1;align=center;fontStyle=4;labelBackgroundColor=none;" parent="1" vertex="1">
          <mxGeometry x="-75" y="70" width="75" height="35" as="geometry" />
        </mxCell>
        <mxCell id="sk798J-t8S1_1swlPKjx-26" value="" style="endArrow=none;html=1;rounded=0;entryX=0.5;entryY=0;entryDx=0;entryDy=0;exitX=0.5;exitY=1;exitDx=0;exitDy=0;labelBackgroundColor=none;fontColor=default;" parent="1" source="QeVsfK4hTUTbqEL9YIG4-53" target="QeVsfK4hTUTbqEL9YIG4-50" edge="1">
          <mxGeometry relative="1" as="geometry">
            <mxPoint x="724.92" y="440" as="sourcePoint" />
            <mxPoint x="884.92" y="440" as="targetPoint" />
          </mxGeometry>
        </mxCell>
        <mxCell id="sk798J-t8S1_1swlPKjx-27" value="N" style="resizable=0;html=1;whiteSpace=wrap;align=right;verticalAlign=bottom;labelBackgroundColor=none;" parent="sk798J-t8S1_1swlPKjx-26" connectable="0" vertex="1">
          <mxGeometry x="1" relative="1" as="geometry" />
        </mxCell>
        <mxCell id="sk798J-t8S1_1swlPKjx-28" value="submission_date" style="ellipse;whiteSpace=wrap;html=1;align=center;labelBackgroundColor=none;" parent="1" vertex="1">
          <mxGeometry x="1144.92" y="365" width="110" height="40" as="geometry" />
        </mxCell>
        <mxCell id="sk798J-t8S1_1swlPKjx-29" value="" style="endArrow=none;html=1;rounded=0;entryX=0;entryY=0.5;entryDx=0;entryDy=0;exitX=1;exitY=0.75;exitDx=0;exitDy=0;labelBackgroundColor=none;fontColor=default;" parent="1" source="QeVsfK4hTUTbqEL9YIG4-53" target="sk798J-t8S1_1swlPKjx-28" edge="1">
          <mxGeometry relative="1" as="geometry">
            <mxPoint x="1144.92" y="375" as="sourcePoint" />
            <mxPoint x="1174.92" y="390" as="targetPoint" />
          </mxGeometry>
        </mxCell>
        <mxCell id="sk798J-t8S1_1swlPKjx-35" value="" style="endArrow=none;html=1;rounded=0;exitX=1;exitY=1;exitDx=0;exitDy=0;entryX=0.5;entryY=0;entryDx=0;entryDy=0;labelBackgroundColor=none;fontColor=default;" parent="1" source="QeVsfK4hTUTbqEL9YIG4-46" target="sk798J-t8S1_1swlPKjx-36" edge="1">
          <mxGeometry relative="1" as="geometry">
            <mxPoint x="1144.92" y="640" as="sourcePoint" />
            <mxPoint x="1114.92" y="680" as="targetPoint" />
          </mxGeometry>
        </mxCell>
        <mxCell id="sk798J-t8S1_1swlPKjx-36" value="upload_date" style="ellipse;whiteSpace=wrap;html=1;align=center;labelBackgroundColor=none;" parent="1" vertex="1">
          <mxGeometry x="1054.92" y="680" width="100" height="40" as="geometry" />
        </mxCell>
        <mxCell id="sk798J-t8S1_1swlPKjx-37" value="" style="endArrow=none;html=1;rounded=0;exitX=1;exitY=0.5;exitDx=0;exitDy=0;entryX=0;entryY=0.5;entryDx=0;entryDy=0;labelBackgroundColor=none;fontColor=default;" parent="1" source="QeVsfK4hTUTbqEL9YIG4-46" target="sk798J-t8S1_1swlPKjx-38" edge="1">
          <mxGeometry relative="1" as="geometry">
            <mxPoint x="1074.92" y="630" as="sourcePoint" />
            <mxPoint x="1154.92" y="630" as="targetPoint" />
          </mxGeometry>
        </mxCell>
        <mxCell id="sk798J-t8S1_1swlPKjx-38" value="description" style="ellipse;whiteSpace=wrap;html=1;align=center;labelBackgroundColor=none;" parent="1" vertex="1">
          <mxGeometry x="1104.92" y="607.5" width="100" height="40" as="geometry" />
        </mxCell>
        <mxCell id="sk798J-t8S1_1swlPKjx-40" value="" style="endArrow=none;html=1;rounded=0;entryX=0.5;entryY=1;entryDx=0;entryDy=0;labelBackgroundColor=none;fontColor=default;" parent="1" target="sk798J-t8S1_1swlPKjx-50" edge="1">
          <mxGeometry relative="1" as="geometry">
            <mxPoint x="240" y="948.95" as="sourcePoint" />
            <mxPoint x="260" y="890" as="targetPoint" />
          </mxGeometry>
        </mxCell>
        <mxCell id="sk798J-t8S1_1swlPKjx-42" value="" style="endArrow=none;html=1;rounded=0;exitX=1;exitY=0;exitDx=0;exitDy=0;labelBackgroundColor=none;fontColor=default;" parent="1" source="QeVsfK4hTUTbqEL9YIG4-46" target="sk798J-t8S1_1swlPKjx-43" edge="1">
          <mxGeometry relative="1" as="geometry">
            <mxPoint x="1044.92" y="560" as="sourcePoint" />
            <mxPoint x="1094.92" y="560" as="targetPoint" />
            <Array as="points" />
          </mxGeometry>
        </mxCell>
        <mxCell id="sk798J-t8S1_1swlPKjx-43" value="deadline" style="ellipse;whiteSpace=wrap;html=1;align=center;labelBackgroundColor=none;" parent="1" vertex="1">
          <mxGeometry x="1064.92" y="540" width="100" height="40" as="geometry" />
        </mxCell>
        <mxCell id="sk798J-t8S1_1swlPKjx-44" value="" style="endArrow=none;html=1;rounded=0;exitX=0.5;exitY=1;exitDx=0;exitDy=0;entryX=0.5;entryY=0;entryDx=0;entryDy=0;labelBackgroundColor=none;fontColor=default;" parent="1" edge="1">
          <mxGeometry relative="1" as="geometry">
            <mxPoint x="110" y="290" as="sourcePoint" />
            <mxPoint x="110" y="395" as="targetPoint" />
          </mxGeometry>
        </mxCell>
        <mxCell id="sk798J-t8S1_1swlPKjx-45" value="M" style="edgeLabel;html=1;align=center;verticalAlign=middle;resizable=0;points=[];labelBackgroundColor=none;" parent="sk798J-t8S1_1swlPKjx-44" vertex="1" connectable="0">
          <mxGeometry x="0.652" y="4" relative="1" as="geometry">
            <mxPoint x="-5" y="8" as="offset" />
          </mxGeometry>
        </mxCell>
        <mxCell id="sk798J-t8S1_1swlPKjx-48" value="" style="endArrow=none;html=1;rounded=0;exitX=0.5;exitY=1;exitDx=0;exitDy=0;entryX=0.5;entryY=0;entryDx=0;entryDy=0;labelBackgroundColor=none;fontColor=default;" parent="1" target="QeVsfK4hTUTbqEL9YIG4-24" edge="1">
          <mxGeometry relative="1" as="geometry">
            <mxPoint x="398.95" y="220" as="sourcePoint" />
            <mxPoint x="398.95" y="325" as="targetPoint" />
          </mxGeometry>
        </mxCell>
        <mxCell id="sk798J-t8S1_1swlPKjx-49" value="M" style="edgeLabel;html=1;align=center;verticalAlign=middle;resizable=0;points=[];labelBackgroundColor=none;" parent="sk798J-t8S1_1swlPKjx-48" vertex="1" connectable="0">
          <mxGeometry x="0.652" y="4" relative="1" as="geometry">
            <mxPoint as="offset" />
          </mxGeometry>
        </mxCell>
        <mxCell id="sk798J-t8S1_1swlPKjx-50" value="session_duration" style="ellipse;whiteSpace=wrap;html=1;align=center;labelBackgroundColor=none;" parent="1" vertex="1">
          <mxGeometry x="235" y="880" width="105" height="35" as="geometry" />
        </mxCell>
        <mxCell id="sk798J-t8S1_1swlPKjx-53" value="nr_of_sessions" style="ellipse;whiteSpace=wrap;html=1;align=center;labelBackgroundColor=none;" parent="1" vertex="1">
          <mxGeometry x="400" y="970" width="110" height="40" as="geometry" />
        </mxCell>
        <mxCell id="sk798J-t8S1_1swlPKjx-54" value="" style="endArrow=none;html=1;rounded=0;entryX=0;entryY=0.5;entryDx=0;entryDy=0;exitX=1;exitY=0.5;exitDx=0;exitDy=0;labelBackgroundColor=none;fontColor=default;" parent="1" source="QeVsfK4hTUTbqEL9YIG4-83" target="sk798J-t8S1_1swlPKjx-53" edge="1">
          <mxGeometry relative="1" as="geometry">
            <mxPoint x="260" y="974.47" as="sourcePoint" />
            <mxPoint x="420" y="974.47" as="targetPoint" />
          </mxGeometry>
        </mxCell>
        <mxCell id="sk798J-t8S1_1swlPKjx-59" value="" style="endArrow=none;html=1;rounded=0;exitX=0;exitY=0.25;exitDx=0;exitDy=0;entryX=0.5;entryY=0;entryDx=0;entryDy=0;labelBackgroundColor=none;fontColor=default;" parent="1" source="QeVsfK4hTUTbqEL9YIG4-77" target="sk798J-t8S1_1swlPKjx-60" edge="1">
          <mxGeometry relative="1" as="geometry">
            <mxPoint x="-50" y="970" as="sourcePoint" />
            <mxPoint x="-195" y="897.5" as="targetPoint" />
          </mxGeometry>
        </mxCell>
        <mxCell id="sk798J-t8S1_1swlPKjx-60" value="upload_date" style="ellipse;whiteSpace=wrap;html=1;align=center;labelBackgroundColor=none;" parent="1" vertex="1">
          <mxGeometry x="-200" y="950" width="100" height="40" as="geometry" />
        </mxCell>
        <mxCell id="sk798J-t8S1_1swlPKjx-61" value="" style="endArrow=none;html=1;rounded=0;entryX=0.5;entryY=0;entryDx=0;entryDy=0;labelBackgroundColor=none;fontColor=default;" parent="1" source="QeVsfK4hTUTbqEL9YIG4-77" target="sk798J-t8S1_1swlPKjx-62" edge="1">
          <mxGeometry relative="1" as="geometry">
            <mxPoint x="-28.4" y="950" as="sourcePoint" />
            <mxPoint x="-170" y="871.45" as="targetPoint" />
          </mxGeometry>
        </mxCell>
        <mxCell id="sk798J-t8S1_1swlPKjx-62" value="update_date" style="ellipse;whiteSpace=wrap;html=1;align=center;labelBackgroundColor=none;" parent="1" vertex="1">
          <mxGeometry x="-150" y="871.45" width="100" height="40" as="geometry" />
        </mxCell>
        <mxCell id="sk798J-t8S1_1swlPKjx-63" value="content_id" style="ellipse;whiteSpace=wrap;html=1;align=center;fontStyle=4;labelBackgroundColor=none;" parent="1" vertex="1">
          <mxGeometry x="40" y="871.45" width="100" height="40" as="geometry" />
        </mxCell>
        <mxCell id="sk798J-t8S1_1swlPKjx-64" value="" style="endArrow=none;html=1;rounded=0;entryX=0.75;entryY=0;entryDx=0;entryDy=0;exitX=0.5;exitY=1;exitDx=0;exitDy=0;labelBackgroundColor=none;fontColor=default;" parent="1" source="sk798J-t8S1_1swlPKjx-63" target="QeVsfK4hTUTbqEL9YIG4-77" edge="1">
          <mxGeometry relative="1" as="geometry">
            <mxPoint x="63" y="915" as="sourcePoint" />
            <mxPoint x="-20" y="836" as="targetPoint" />
          </mxGeometry>
        </mxCell>
        <mxCell id="sk798J-t8S1_1swlPKjx-66" value="" style="endArrow=none;html=1;rounded=0;exitX=1;exitY=0.5;exitDx=0;exitDy=0;entryX=0;entryY=1;entryDx=0;entryDy=0;labelBackgroundColor=none;fontColor=default;" parent="1" source="QeVsfK4hTUTbqEL9YIG4-86" target="sk798J-t8S1_1swlPKjx-67" edge="1">
          <mxGeometry relative="1" as="geometry">
            <mxPoint x="757" y="-99.5" as="sourcePoint" />
            <mxPoint x="782" y="-105" as="targetPoint" />
          </mxGeometry>
        </mxCell>
        <mxCell id="sk798J-t8S1_1swlPKjx-67" value="description" style="ellipse;whiteSpace=wrap;html=1;align=center;labelBackgroundColor=none;" parent="1" vertex="1">
          <mxGeometry x="770" y="-165" width="80" height="40" as="geometry" />
        </mxCell>
        <mxCell id="sk798J-t8S1_1swlPKjx-69" value="" style="endArrow=none;html=1;rounded=0;exitX=0.5;exitY=1;exitDx=0;exitDy=0;entryX=0.5;entryY=0;entryDx=0;entryDy=0;labelBackgroundColor=none;fontColor=default;" parent="1" source="QeVsfK4hTUTbqEL9YIG4-86" target="sk798J-t8S1_1swlPKjx-70" edge="1">
          <mxGeometry relative="1" as="geometry">
            <mxPoint x="612" y="-29.5" as="sourcePoint" />
            <mxPoint x="717" y="-27.5" as="targetPoint" />
          </mxGeometry>
        </mxCell>
        <mxCell id="sk798J-t8S1_1swlPKjx-70" value="ranking" style="ellipse;whiteSpace=wrap;html=1;align=center;labelBackgroundColor=none;" parent="1" vertex="1">
          <mxGeometry x="740" y="-52.5" width="90" height="40" as="geometry" />
        </mxCell>
        <mxCell id="sk798J-t8S1_1swlPKjx-343" value="" style="endArrow=none;html=1;rounded=0;exitX=0.5;exitY=1;exitDx=0;exitDy=0;entryX=1;entryY=0.25;entryDx=0;entryDy=0;labelBackgroundColor=none;fontColor=default;" parent="1" source="sk798J-t8S1_1swlPKjx-346" target="QeVsfK4hTUTbqEL9YIG4-21" edge="1">
          <mxGeometry relative="1" as="geometry">
            <mxPoint x="269.00000000000045" y="580.8400000000001" as="sourcePoint" />
            <mxPoint x="78" y="608" as="targetPoint" />
          </mxGeometry>
        </mxCell>
        <mxCell id="sk798J-t8S1_1swlPKjx-346" value="title" style="ellipse;whiteSpace=wrap;html=1;align=center;labelBackgroundColor=none;" parent="1" vertex="1">
          <mxGeometry x="210" y="550" width="100" height="40" as="geometry" />
        </mxCell>
        <mxCell id="sk798J-t8S1_1swlPKjx-349" value="" style="endArrow=none;html=1;rounded=0;entryX=0;entryY=0.5;entryDx=0;entryDy=0;exitX=0.98;exitY=0.702;exitDx=0;exitDy=0;exitPerimeter=0;labelBackgroundColor=none;fontColor=default;" parent="1" source="sk798J-t8S1_1swlPKjx-350" target="QeVsfK4hTUTbqEL9YIG4-1" edge="1">
          <mxGeometry relative="1" as="geometry">
            <mxPoint x="-30" y="-10" as="sourcePoint" />
            <mxPoint x="30" as="targetPoint" />
          </mxGeometry>
        </mxCell>
        <mxCell id="sk798J-t8S1_1swlPKjx-350" value="last_logged" style="ellipse;whiteSpace=wrap;html=1;align=center;labelBackgroundColor=none;" parent="1" vertex="1">
          <mxGeometry x="-80" y="20" width="80" height="35" as="geometry" />
        </mxCell>
        <mxCell id="sk798J-t8S1_1swlPKjx-353" value="specialization" style="ellipse;shape=doubleEllipse;margin=3;whiteSpace=wrap;html=1;align=center;labelBackgroundColor=none;" parent="1" vertex="1">
          <mxGeometry x="-56.25" y="230" width="87.5" height="35" as="geometry" />
        </mxCell>
        <mxCell id="sk798J-t8S1_1swlPKjx-354" value="" style="endArrow=none;html=1;rounded=0;exitX=1;exitY=0.5;exitDx=0;exitDy=0;entryX=0;entryY=0.5;entryDx=0;entryDy=0;labelBackgroundColor=none;fontColor=default;" parent="1" source="sk798J-t8S1_1swlPKjx-353" target="QeVsfK4hTUTbqEL9YIG4-16" edge="1">
          <mxGeometry relative="1" as="geometry">
            <mxPoint x="150" y="240" as="sourcePoint" />
            <mxPoint x="310" y="240" as="targetPoint" />
          </mxGeometry>
        </mxCell>
        <mxCell id="8_d6funxsuRYMDbqIWSm-1" value="" style="endArrow=none;html=1;rounded=0;exitX=1;exitY=0.5;exitDx=0;exitDy=0;entryX=0;entryY=0.5;entryDx=0;entryDy=0;labelBackgroundColor=none;fontColor=default;" parent="1" source="QeVsfK4hTUTbqEL9YIG4-16" target="8_d6funxsuRYMDbqIWSm-4" edge="1">
          <mxGeometry relative="1" as="geometry">
            <mxPoint x="175.5" y="269.5" as="sourcePoint" />
            <mxPoint x="220" y="270" as="targetPoint" />
          </mxGeometry>
        </mxCell>
        <mxCell id="8_d6funxsuRYMDbqIWSm-2" value="" style="endArrow=none;html=1;rounded=0;exitX=0.5;exitY=0;exitDx=0;exitDy=0;labelBackgroundColor=none;fontColor=default;" parent="1" source="QeVsfK4hTUTbqEL9YIG4-17" target="8_d6funxsuRYMDbqIWSm-6" edge="1">
          <mxGeometry relative="1" as="geometry">
            <mxPoint x="370" y="140" as="sourcePoint" />
            <mxPoint x="530" y="140" as="targetPoint" />
          </mxGeometry>
        </mxCell>
        <mxCell id="8_d6funxsuRYMDbqIWSm-3" value="" style="endArrow=none;html=1;rounded=0;entryX=0.5;entryY=0;entryDx=0;entryDy=0;exitX=1;exitY=1;exitDx=0;exitDy=0;labelBackgroundColor=none;fontColor=default;" parent="1" source="8_d6funxsuRYMDbqIWSm-5" target="QeVsfK4hTUTbqEL9YIG4-15" edge="1">
          <mxGeometry relative="1" as="geometry">
            <mxPoint x="-290" y="170" as="sourcePoint" />
            <mxPoint x="-130" y="170" as="targetPoint" />
          </mxGeometry>
        </mxCell>
        <mxCell id="8_d6funxsuRYMDbqIWSm-4" value="inst_id" style="ellipse;whiteSpace=wrap;html=1;align=center;labelBackgroundColor=none;" parent="1" vertex="1">
          <mxGeometry x="211" y="250" width="82" height="30" as="geometry" />
        </mxCell>
        <mxCell id="8_d6funxsuRYMDbqIWSm-5" value="admin_id" style="ellipse;whiteSpace=wrap;html=1;align=center;labelBackgroundColor=none;" parent="1" vertex="1">
          <mxGeometry x="-280" y="117.5" width="80" height="35" as="geometry" />
        </mxCell>
        <mxCell id="8_d6funxsuRYMDbqIWSm-6" value="std_id" style="ellipse;whiteSpace=wrap;html=1;align=center;labelBackgroundColor=none;" parent="1" vertex="1">
          <mxGeometry x="300" y="120" width="100" height="30" as="geometry" />
        </mxCell>
        <mxCell id="8_d6funxsuRYMDbqIWSm-10" value="date_of_birth" style="ellipse;whiteSpace=wrap;html=1;align=center;labelBackgroundColor=none;" parent="1" vertex="1">
          <mxGeometry x="200" y="22.5" width="82" height="30" as="geometry" />
        </mxCell>
        <mxCell id="8_d6funxsuRYMDbqIWSm-12" value="creation_date" style="ellipse;whiteSpace=wrap;html=1;align=center;labelBackgroundColor=none;" parent="1" vertex="1">
          <mxGeometry x="187.5" y="-22.5" width="82.5" height="27.5" as="geometry" />
        </mxCell>
        <mxCell id="8_d6funxsuRYMDbqIWSm-15" value="" style="endArrow=none;html=1;rounded=0;exitX=1;exitY=0.5;exitDx=0;exitDy=0;entryX=0;entryY=0.5;entryDx=0;entryDy=0;labelBackgroundColor=none;fontColor=default;" parent="1" source="QeVsfK4hTUTbqEL9YIG4-1" target="8_d6funxsuRYMDbqIWSm-10" edge="1">
          <mxGeometry relative="1" as="geometry">
            <mxPoint x="223" y="52.5" as="sourcePoint" />
            <mxPoint x="383" y="52.5" as="targetPoint" />
          </mxGeometry>
        </mxCell>
        <mxCell id="8_d6funxsuRYMDbqIWSm-16" value="" style="endArrow=none;html=1;rounded=0;exitX=1;exitY=0;exitDx=0;exitDy=0;entryX=0;entryY=1;entryDx=0;entryDy=0;labelBackgroundColor=none;fontColor=default;" parent="1" source="QeVsfK4hTUTbqEL9YIG4-1" target="8_d6funxsuRYMDbqIWSm-12" edge="1">
          <mxGeometry relative="1" as="geometry">
            <mxPoint x="170" y="21.5" as="sourcePoint" />
            <mxPoint x="330" y="21.5" as="targetPoint" />
          </mxGeometry>
        </mxCell>
        <mxCell id="7rTUmlOfAiNdixbsN-rt-3" value="history of" style="shape=rhombus;perimeter=rhombusPerimeter;whiteSpace=wrap;html=1;align=center;labelBackgroundColor=none;" parent="1" vertex="1">
          <mxGeometry x="-400" y="180" width="120" height="60" as="geometry" />
        </mxCell>
        <mxCell id="7rTUmlOfAiNdixbsN-rt-6" value="Change Log" style="whiteSpace=wrap;html=1;align=center;labelBackgroundColor=none;" parent="1" vertex="1">
          <mxGeometry x="-560" y="190" width="100" height="40" as="geometry" />
        </mxCell>
        <mxCell id="7rTUmlOfAiNdixbsN-rt-8" value="" style="endArrow=none;html=1;rounded=0;exitX=1;exitY=1;exitDx=0;exitDy=0;labelBackgroundColor=none;fontColor=default;entryX=0;entryY=0.5;entryDx=0;entryDy=0;" parent="1" target="QeVsfK4hTUTbqEL9YIG4-15" edge="1">
          <mxGeometry relative="1" as="geometry">
            <mxPoint x="-280" y="209.47" as="sourcePoint" />
            <mxPoint x="-230" y="209.47" as="targetPoint" />
          </mxGeometry>
        </mxCell>
        <mxCell id="7rTUmlOfAiNdixbsN-rt-9" value="" style="endArrow=none;html=1;rounded=0;exitX=1;exitY=1;exitDx=0;exitDy=0;labelBackgroundColor=none;fontColor=default;entryX=0;entryY=0.5;entryDx=0;entryDy=0;" parent="1" edge="1">
          <mxGeometry relative="1" as="geometry">
            <mxPoint x="-460" y="209.47" as="sourcePoint" />
            <mxPoint x="-400" y="210" as="targetPoint" />
          </mxGeometry>
        </mxCell>
        <mxCell id="7rTUmlOfAiNdixbsN-rt-15" value="course_id" style="ellipse;whiteSpace=wrap;html=1;align=center;fontStyle=4;labelBackgroundColor=none;" parent="1" vertex="1">
          <mxGeometry x="-560" y="112.5" width="100" height="40" as="geometry" />
        </mxCell>
        <mxCell id="7rTUmlOfAiNdixbsN-rt-16" value="type_of_change&lt;br&gt;" style="ellipse;whiteSpace=wrap;html=1;align=center;" parent="1" vertex="1">
          <mxGeometry x="-700" y="190" width="100" height="40" as="geometry" />
        </mxCell>
        <mxCell id="7rTUmlOfAiNdixbsN-rt-17" value="timestamp" style="ellipse;whiteSpace=wrap;html=1;align=center;" parent="1" vertex="1">
          <mxGeometry x="-560" y="265" width="100" height="40" as="geometry" />
        </mxCell>
        <mxCell id="7rTUmlOfAiNdixbsN-rt-19" value="1" style="text;html=1;align=center;verticalAlign=middle;resizable=0;points=[];autosize=1;strokeColor=none;fillColor=none;" parent="1" vertex="1">
          <mxGeometry x="-280" y="180" width="30" height="30" as="geometry" />
        </mxCell>
        <mxCell id="7rTUmlOfAiNdixbsN-rt-23" value="N" style="text;html=1;align=center;verticalAlign=middle;resizable=0;points=[];autosize=1;strokeColor=none;fillColor=none;" parent="1" vertex="1">
          <mxGeometry x="-425" y="180" width="30" height="30" as="geometry" />
        </mxCell>
        <mxCell id="7rTUmlOfAiNdixbsN-rt-24" value="" style="endArrow=none;html=1;rounded=0;exitX=1;exitY=1;exitDx=0;exitDy=0;labelBackgroundColor=none;fontColor=default;" parent="1" edge="1">
          <mxGeometry relative="1" as="geometry">
            <mxPoint x="-510.62" y="231" as="sourcePoint" />
            <mxPoint x="-510.62" y="265" as="targetPoint" />
          </mxGeometry>
        </mxCell>
        <mxCell id="7rTUmlOfAiNdixbsN-rt-26" value="" style="endArrow=none;html=1;rounded=0;labelBackgroundColor=none;fontColor=default;entryX=1;entryY=0.5;entryDx=0;entryDy=0;" parent="1" target="7rTUmlOfAiNdixbsN-rt-16" edge="1">
          <mxGeometry relative="1" as="geometry">
            <mxPoint x="-561" y="210" as="sourcePoint" />
            <mxPoint x="-561.25" y="240" as="targetPoint" />
          </mxGeometry>
        </mxCell>
        <mxCell id="7rTUmlOfAiNdixbsN-rt-28" value="" style="endArrow=none;html=1;rounded=0;labelBackgroundColor=none;fontColor=default;entryX=0.5;entryY=0;entryDx=0;entryDy=0;" parent="1" target="7rTUmlOfAiNdixbsN-rt-6" edge="1">
          <mxGeometry relative="1" as="geometry">
            <mxPoint x="-510" y="160" as="sourcePoint" />
            <mxPoint x="-480" y="282.5" as="targetPoint" />
          </mxGeometry>
        </mxCell>
        <mxCell id="7rTUmlOfAiNdixbsN-rt-31" value="Payment" style="whiteSpace=wrap;html=1;align=center;labelBackgroundColor=none;" parent="1" vertex="1">
          <mxGeometry x="570" y="400" width="100" height="50" as="geometry" />
        </mxCell>
        <mxCell id="7rTUmlOfAiNdixbsN-rt-44" value="1" style="text;html=1;align=center;verticalAlign=middle;resizable=0;points=[];autosize=1;strokeColor=none;fillColor=none;" parent="1" vertex="1">
          <mxGeometry x="450" y="395" width="30" height="30" as="geometry" />
        </mxCell>
        <mxCell id="7rTUmlOfAiNdixbsN-rt-45" value="Discount" style="whiteSpace=wrap;html=1;align=center;" parent="1" vertex="1">
          <mxGeometry x="570" y="210" width="100" height="40" as="geometry" />
        </mxCell>
        <mxCell id="7rTUmlOfAiNdixbsN-rt-46" value="applies" style="shape=rhombus;perimeter=rhombusPerimeter;whiteSpace=wrap;html=1;align=center;" parent="1" vertex="1">
          <mxGeometry x="560" y="295" width="120" height="60" as="geometry" />
        </mxCell>
        <mxCell id="7rTUmlOfAiNdixbsN-rt-48" value="" style="endArrow=none;html=1;rounded=0;exitX=0.5;exitY=1;exitDx=0;exitDy=0;entryX=0.5;entryY=0;entryDx=0;entryDy=0;" parent="1" source="7rTUmlOfAiNdixbsN-rt-45" target="7rTUmlOfAiNdixbsN-rt-46" edge="1">
          <mxGeometry relative="1" as="geometry">
            <mxPoint x="455" y="300" as="sourcePoint" />
            <mxPoint x="615" y="300" as="targetPoint" />
            <Array as="points" />
          </mxGeometry>
        </mxCell>
        <mxCell id="7rTUmlOfAiNdixbsN-rt-49" value="1" style="resizable=0;html=1;whiteSpace=wrap;align=right;verticalAlign=bottom;" parent="7rTUmlOfAiNdixbsN-rt-48" connectable="0" vertex="1">
          <mxGeometry x="1" relative="1" as="geometry">
            <mxPoint x="10" y="10" as="offset" />
          </mxGeometry>
        </mxCell>
        <mxCell id="7rTUmlOfAiNdixbsN-rt-51" value="" style="endArrow=none;html=1;rounded=0;exitX=0.5;exitY=0;exitDx=0;exitDy=0;entryX=0.5;entryY=1;entryDx=0;entryDy=0;" parent="1" source="7rTUmlOfAiNdixbsN-rt-31" target="7rTUmlOfAiNdixbsN-rt-46" edge="1">
          <mxGeometry relative="1" as="geometry">
            <mxPoint x="690" y="310" as="sourcePoint" />
            <mxPoint x="690" y="365" as="targetPoint" />
            <Array as="points" />
          </mxGeometry>
        </mxCell>
        <mxCell id="7rTUmlOfAiNdixbsN-rt-52" value="1" style="resizable=0;html=1;whiteSpace=wrap;align=right;verticalAlign=bottom;" parent="7rTUmlOfAiNdixbsN-rt-51" connectable="0" vertex="1">
          <mxGeometry x="1" relative="1" as="geometry">
            <mxPoint x="10" y="10" as="offset" />
          </mxGeometry>
        </mxCell>
        <mxCell id="7rTUmlOfAiNdixbsN-rt-54" value="due_date" style="ellipse;whiteSpace=wrap;html=1;align=center;labelBackgroundColor=none;" parent="1" vertex="1">
          <mxGeometry x="590" y="530" width="100" height="40" as="geometry" />
        </mxCell>
        <mxCell id="7rTUmlOfAiNdixbsN-rt-55" value="discount_name" style="ellipse;whiteSpace=wrap;html=1;align=center;labelBackgroundColor=none;" parent="1" vertex="1">
          <mxGeometry x="710" y="220" width="100" height="40" as="geometry" />
        </mxCell>
        <mxCell id="7rTUmlOfAiNdixbsN-rt-56" value="payment_method&lt;br&gt;" style="ellipse;whiteSpace=wrap;html=1;align=center;labelBackgroundColor=none;" parent="1" vertex="1">
          <mxGeometry x="725" y="400" width="110" height="40" as="geometry" />
        </mxCell>
        <mxCell id="7rTUmlOfAiNdixbsN-rt-57" value="payment_id" style="ellipse;whiteSpace=wrap;html=1;align=center;labelBackgroundColor=none;" parent="1" vertex="1">
          <mxGeometry x="720" y="460" width="110" height="40" as="geometry" />
        </mxCell>
        <mxCell id="7rTUmlOfAiNdixbsN-rt-61" value="start_date" style="ellipse;whiteSpace=wrap;html=1;align=center;labelBackgroundColor=none;" parent="1" vertex="1">
          <mxGeometry x="700" y="280" width="110" height="40" as="geometry" />
        </mxCell>
        <mxCell id="7rTUmlOfAiNdixbsN-rt-62" value="end_date" style="ellipse;whiteSpace=wrap;html=1;align=center;labelBackgroundColor=none;" parent="1" vertex="1">
          <mxGeometry x="455" y="260" width="110" height="40" as="geometry" />
        </mxCell>
        <mxCell id="7rTUmlOfAiNdixbsN-rt-64" value="discount_rate" style="ellipse;whiteSpace=wrap;html=1;align=center;labelBackgroundColor=none;" parent="1" vertex="1">
          <mxGeometry x="560" y="112.5" width="110" height="40" as="geometry" />
        </mxCell>
        <mxCell id="7rTUmlOfAiNdixbsN-rt-65" value="discount_id" style="ellipse;whiteSpace=wrap;html=1;align=center;labelBackgroundColor=none;" parent="1" vertex="1">
          <mxGeometry x="690" y="112.5" width="110" height="40" as="geometry" />
        </mxCell>
        <mxCell id="7rTUmlOfAiNdixbsN-rt-69" value="" style="endArrow=none;html=1;rounded=0;entryX=0.5;entryY=1;entryDx=0;entryDy=0;" parent="1" target="7rTUmlOfAiNdixbsN-rt-64" edge="1">
          <mxGeometry relative="1" as="geometry">
            <mxPoint x="620" y="210" as="sourcePoint" />
            <mxPoint x="650" y="170" as="targetPoint" />
          </mxGeometry>
        </mxCell>
        <mxCell id="7rTUmlOfAiNdixbsN-rt-70" value="" style="endArrow=none;html=1;rounded=0;entryX=0;entryY=1;entryDx=0;entryDy=0;exitX=1;exitY=0.25;exitDx=0;exitDy=0;" parent="1" source="7rTUmlOfAiNdixbsN-rt-45" target="7rTUmlOfAiNdixbsN-rt-65" edge="1">
          <mxGeometry relative="1" as="geometry">
            <mxPoint x="625" y="240" as="sourcePoint" />
            <mxPoint x="625" y="163" as="targetPoint" />
          </mxGeometry>
        </mxCell>
        <mxCell id="7rTUmlOfAiNdixbsN-rt-71" value="" style="endArrow=none;html=1;rounded=0;entryX=0;entryY=0.5;entryDx=0;entryDy=0;" parent="1" target="7rTUmlOfAiNdixbsN-rt-55" edge="1">
          <mxGeometry relative="1" as="geometry">
            <mxPoint x="670" y="240" as="sourcePoint" />
            <mxPoint x="635" y="173" as="targetPoint" />
          </mxGeometry>
        </mxCell>
        <mxCell id="7rTUmlOfAiNdixbsN-rt-72" value="" style="endArrow=none;html=1;rounded=0;exitX=1;exitY=1;exitDx=0;exitDy=0;" parent="1" source="7rTUmlOfAiNdixbsN-rt-45" target="7rTUmlOfAiNdixbsN-rt-61" edge="1">
          <mxGeometry relative="1" as="geometry">
            <mxPoint x="645" y="260" as="sourcePoint" />
            <mxPoint x="645" y="183" as="targetPoint" />
          </mxGeometry>
        </mxCell>
        <mxCell id="7rTUmlOfAiNdixbsN-rt-73" value="" style="endArrow=none;html=1;rounded=0;entryX=1;entryY=0;entryDx=0;entryDy=0;exitX=0;exitY=0.75;exitDx=0;exitDy=0;" parent="1" source="7rTUmlOfAiNdixbsN-rt-45" target="7rTUmlOfAiNdixbsN-rt-62" edge="1">
          <mxGeometry relative="1" as="geometry">
            <mxPoint x="655" y="270" as="sourcePoint" />
            <mxPoint x="655" y="193" as="targetPoint" />
          </mxGeometry>
        </mxCell>
        <mxCell id="7rTUmlOfAiNdixbsN-rt-75" value="" style="endArrow=none;html=1;rounded=0;entryX=1;entryY=0.5;entryDx=0;entryDy=0;exitX=0;exitY=0.5;exitDx=0;exitDy=0;" parent="1" source="7rTUmlOfAiNdixbsN-rt-56" target="7rTUmlOfAiNdixbsN-rt-31" edge="1">
          <mxGeometry relative="1" as="geometry">
            <mxPoint x="680" y="407" as="sourcePoint" />
            <mxPoint x="680" y="330" as="targetPoint" />
          </mxGeometry>
        </mxCell>
        <mxCell id="7rTUmlOfAiNdixbsN-rt-76" value="" style="endArrow=none;html=1;rounded=0;entryX=0;entryY=0.5;entryDx=0;entryDy=0;exitX=1;exitY=1;exitDx=0;exitDy=0;" parent="1" source="7rTUmlOfAiNdixbsN-rt-31" target="7rTUmlOfAiNdixbsN-rt-57" edge="1">
          <mxGeometry relative="1" as="geometry">
            <mxPoint x="735" y="430" as="sourcePoint" />
            <mxPoint x="680" y="435" as="targetPoint" />
          </mxGeometry>
        </mxCell>
        <mxCell id="7rTUmlOfAiNdixbsN-rt-77" value="" style="endArrow=none;html=1;rounded=0;entryX=0.5;entryY=0;entryDx=0;entryDy=0;exitX=0.5;exitY=1;exitDx=0;exitDy=0;" parent="1" source="7rTUmlOfAiNdixbsN-rt-31" target="7rTUmlOfAiNdixbsN-rt-54" edge="1">
          <mxGeometry relative="1" as="geometry">
            <mxPoint x="635" y="470" as="sourcePoint" />
            <mxPoint x="665" y="510" as="targetPoint" />
          </mxGeometry>
        </mxCell>
        <mxCell id="7rTUmlOfAiNdixbsN-rt-78" value="" style="endArrow=none;html=1;rounded=0;entryX=0.738;entryY=-0.019;entryDx=0;entryDy=0;exitX=0.137;exitY=1.007;exitDx=0;exitDy=0;exitPerimeter=0;entryPerimeter=0;" parent="1" source="7rTUmlOfAiNdixbsN-rt-31" target="7rTUmlOfAiNdixbsN-rt-79" edge="1">
          <mxGeometry relative="1" as="geometry">
            <mxPoint x="560" y="460" as="sourcePoint" />
            <mxPoint x="553.6799999999998" y="491.44000000000005" as="targetPoint" />
          </mxGeometry>
        </mxCell>
        <mxCell id="7rTUmlOfAiNdixbsN-rt-79" value="payment_id" style="ellipse;whiteSpace=wrap;html=1;align=center;fontStyle=4;" parent="1" vertex="1">
          <mxGeometry x="475" y="520" width="100" height="40" as="geometry" />
        </mxCell>
        <mxCell id="7rTUmlOfAiNdixbsN-rt-80" value="price" style="ellipse;whiteSpace=wrap;html=1;align=center;dashed=1;" parent="1" vertex="1">
          <mxGeometry x="725" y="540" width="100" height="40" as="geometry" />
        </mxCell>
        <mxCell id="7rTUmlOfAiNdixbsN-rt-81" value="" style="endArrow=none;html=1;rounded=0;exitX=0.75;exitY=1;exitDx=0;exitDy=0;entryX=0;entryY=0;entryDx=0;entryDy=0;" parent="1" source="7rTUmlOfAiNdixbsN-rt-31" target="7rTUmlOfAiNdixbsN-rt-80" edge="1">
          <mxGeometry relative="1" as="geometry">
            <mxPoint x="665" y="450" as="sourcePoint" />
            <mxPoint x="730" y="550" as="targetPoint" />
          </mxGeometry>
        </mxCell>
        <mxCell id="7rTUmlOfAiNdixbsN-rt-83" value="&lt;span style=&quot;border-bottom: 1px dotted&quot;&gt;discount_id&lt;/span&gt;" style="ellipse;whiteSpace=wrap;html=1;align=center;" parent="1" vertex="1">
          <mxGeometry x="455" y="355" width="100" height="40" as="geometry" />
        </mxCell>
        <mxCell id="7rTUmlOfAiNdixbsN-rt-85" value="" style="endArrow=none;html=1;rounded=0;entryX=1;entryY=1;entryDx=0;entryDy=0;exitX=0;exitY=0.25;exitDx=0;exitDy=0;" parent="1" source="7rTUmlOfAiNdixbsN-rt-31" target="7rTUmlOfAiNdixbsN-rt-83" edge="1">
          <mxGeometry relative="1" as="geometry">
            <mxPoint x="570" y="440" as="sourcePoint" />
            <mxPoint x="540" y="400" as="targetPoint" />
          </mxGeometry>
        </mxCell>
        <mxCell id="7rTUmlOfAiNdixbsN-rt-86" value="earns" style="shape=rhombus;perimeter=rhombusPerimeter;whiteSpace=wrap;html=1;align=center;direction=west;" parent="1" vertex="1">
          <mxGeometry x="430" y="7.5" width="120" height="60" as="geometry" />
        </mxCell>
        <mxCell id="7rTUmlOfAiNdixbsN-rt-87" value="" style="endArrow=none;html=1;rounded=0;exitX=0.631;exitY=0.055;exitDx=0;exitDy=0;exitPerimeter=0;entryX=0.671;entryY=0.037;entryDx=0;entryDy=0;entryPerimeter=0;" parent="1" source="QeVsfK4hTUTbqEL9YIG4-17" target="7rTUmlOfAiNdixbsN-rt-86" edge="1">
          <mxGeometry relative="1" as="geometry">
            <mxPoint x="330" y="70" as="sourcePoint" />
            <mxPoint x="460" y="60" as="targetPoint" />
          </mxGeometry>
        </mxCell>
        <mxCell id="7rTUmlOfAiNdixbsN-rt-89" value="" style="endArrow=none;html=1;rounded=0;entryX=0;entryY=1;entryDx=0;entryDy=0;exitX=0;exitY=1;exitDx=0;exitDy=0;" parent="1" source="7rTUmlOfAiNdixbsN-rt-86" target="QeVsfK4hTUTbqEL9YIG4-86" edge="1">
          <mxGeometry relative="1" as="geometry">
            <mxPoint x="570" y="30" as="sourcePoint" />
            <mxPoint x="555" y="85.5" as="targetPoint" />
          </mxGeometry>
        </mxCell>
        <mxCell id="7rTUmlOfAiNdixbsN-rt-90" value="1" style="text;html=1;align=center;verticalAlign=middle;resizable=0;points=[];autosize=1;strokeColor=none;fillColor=none;" parent="1" vertex="1">
          <mxGeometry x="455" y="82.5" width="30" height="30" as="geometry" />
        </mxCell>
        <mxCell id="7rTUmlOfAiNdixbsN-rt-91" value="1" style="text;html=1;align=center;verticalAlign=middle;resizable=0;points=[];autosize=1;strokeColor=none;fillColor=none;" parent="1" vertex="1">
          <mxGeometry x="540" y="7.5" width="30" height="30" as="geometry" />
        </mxCell>
        <mxCell id="7rTUmlOfAiNdixbsN-rt-92" value="" style="endArrow=none;html=1;rounded=0;exitX=0;exitY=0.75;exitDx=0;exitDy=0;entryX=1;entryY=0;entryDx=0;entryDy=0;" parent="1" source="7rTUmlOfAiNdixbsN-rt-31" target="7rTUmlOfAiNdixbsN-rt-93" edge="1">
          <mxGeometry relative="1" as="geometry">
            <mxPoint x="580" y="423" as="sourcePoint" />
            <mxPoint x="470" y="500" as="targetPoint" />
          </mxGeometry>
        </mxCell>
        <mxCell id="7rTUmlOfAiNdixbsN-rt-93" value="has&lt;br&gt;" style="shape=rhombus;perimeter=rhombusPerimeter;whiteSpace=wrap;html=1;align=center;" parent="1" vertex="1">
          <mxGeometry x="335" y="540" width="120" height="60" as="geometry" />
        </mxCell>
        <mxCell id="7rTUmlOfAiNdixbsN-rt-94" value="" style="endArrow=none;html=1;rounded=0;entryX=1;entryY=0.5;entryDx=0;entryDy=0;" parent="1" target="QeVsfK4hTUTbqEL9YIG4-21" edge="1">
          <mxGeometry relative="1" as="geometry">
            <mxPoint x="350" y="580" as="sourcePoint" />
            <mxPoint x="220" y="697" as="targetPoint" />
          </mxGeometry>
        </mxCell>
        <mxCell id="7rTUmlOfAiNdixbsN-rt-95" value="&lt;span style=&quot;border-bottom: 1px dotted&quot;&gt;payment_id&lt;/span&gt;" style="ellipse;whiteSpace=wrap;html=1;align=center;" parent="1" vertex="1">
          <mxGeometry x="-140" y="570" width="100" height="40" as="geometry" />
        </mxCell>
        <mxCell id="7rTUmlOfAiNdixbsN-rt-96" value="" style="endArrow=none;html=1;rounded=0;exitX=0.979;exitY=0.785;exitDx=0;exitDy=0;exitPerimeter=0;entryX=0;entryY=0.5;entryDx=0;entryDy=0;labelBackgroundColor=none;fontColor=default;" parent="1" source="7rTUmlOfAiNdixbsN-rt-95" target="QeVsfK4hTUTbqEL9YIG4-21" edge="1">
          <mxGeometry relative="1" as="geometry">
            <mxPoint x="-34" y="597.5" as="sourcePoint" />
            <mxPoint x="-20" y="626.5" as="targetPoint" />
          </mxGeometry>
        </mxCell>
        <mxCell id="7rTUmlOfAiNdixbsN-rt-98" value="1" style="text;html=1;align=center;verticalAlign=middle;resizable=0;points=[];autosize=1;strokeColor=none;fillColor=none;" parent="1" vertex="1">
          <mxGeometry x="410" y="510" width="30" height="30" as="geometry" />
        </mxCell>
        <mxCell id="7rTUmlOfAiNdixbsN-rt-100" value="1" style="text;html=1;align=center;verticalAlign=middle;resizable=0;points=[];autosize=1;strokeColor=none;fillColor=none;" parent="1" vertex="1">
          <mxGeometry x="323" y="577.5" width="30" height="30" as="geometry" />
        </mxCell>
      </root>
    </mxGraphModel>
  </diagram>
</mxfile>
